<svg width="40" height="8" viewBox="0 0 40 8" fill="none" xmlns="http://www.w3.org/2000/svg">
<path d="M2.23963 1.652H0.349625V0.0799997H5.91763V1.652H4.03363V8H2.23963V1.652ZM12.4048 4.814H9.66881V8H7.88081V0.0799997H9.66881V3.248H12.4048V0.0799997H14.1868V8H12.4048V4.814ZM16.5449 0.0799997H21.6029V1.652H18.3329V3.266H21.5729V4.79H18.3329V6.428H21.6029V8H16.5449V0.0799997ZM32.391 0.0799997V8H30.603V3.338L30.681 2.012L30.375 3.53L29.043 7.364H27.285L25.959 3.53L25.659 2.012L25.737 3.338V8H23.943V0.0799997H26.463L28.059 5.366L28.167 5.996L28.275 5.366L29.871 0.0799997H32.391ZM34.8222 0.0799997H39.8802V1.652H36.6102V3.266H39.8502V4.79H36.6102V6.428H39.8802V8H34.8222V0.0799997Z" fill="white"/>
</svg>
